<?xml version="1.0" encoding="utf-8"?>
<!-- Generator: Adobe Illustrator 23.0.1, SVG Export Plug-In . SVG Version: 6.00 Build 0)  -->
<svg version="1.1" id="Layer_1" xmlns="http://www.w3.org/2000/svg" xmlns:xlink="http://www.w3.org/1999/xlink" x="0px" y="0px"
	 viewBox="0 0 512 512" style="enable-background:new 0 0 512 512;" xml:space="preserve">
<style type="text/css">
	.st0{fill:#94FFEA;}
	.st1{fill:#65DDB9;}
	.st2{fill:#46B29D;}
	.st3{fill:#14A085;}
</style>
<circle class="st0" cx="255" cy="256" r="256"/>
<g>
	<path class="st1" d="M250.2,151.9c-3.2,0-5.8-2.6-5.8-5.8V123c0-3.2,2.6-5.8,5.8-5.8s5.8,2.6,5.8,5.8v23.1
		C256,149.3,253.4,151.9,250.2,151.9z"/>
	<path class="st1" d="M172.5,184.1c-1.5,0-3-0.6-4.1-1.7L148,161.9c-2.2-2.3-2.2-5.9,0.1-8.1c2.2-2.2,5.8-2.3,8.1-0.1l20.5,20.5
		c1.7,1.7,2.1,4.1,1.3,6.3C177,182.7,174.9,184.1,172.5,184.1z"/>
	<path class="st1" d="M140.3,261.8h-23.1c-3.2,0-5.8-2.6-5.8-5.8s2.6-5.8,5.8-5.8h23.1c3.2,0,5.8,2.6,5.8,5.8
		S143.5,261.8,140.3,261.8z"/>
	<path class="st1" d="M152.1,359.9c-2.3,0-4.4-1.4-5.3-3.6c-0.9-2.2-0.4-4.6,1.3-6.3l20.5-20.4c2.3-2.2,5.9-2.2,8.1,0.1
		c2.2,2.2,2.3,5.8,0.1,8.1l-20.5,20.5C155.1,359.3,153.6,359.9,152.1,359.9z"/>
	<path class="st1" d="M250.2,394.8c-3.2,0-5.8-2.6-5.8-5.8v-23.1c0-3.2,2.6-5.8,5.8-5.8s5.8,2.6,5.8,5.8V389
		C256,392.2,253.4,394.8,250.2,394.8z"/>
	<path class="st1" d="M348.4,359.9c-1.5,0-3-0.6-4.1-1.7l-20.5-20.5c-2.2-2.3-2.2-5.9,0.1-8.1c2.2-2.2,5.8-2.3,8.1-0.1l20.5,20.4
		c1.7,1.7,2.1,4.1,1.3,6.3C352.8,358.5,350.7,359.9,348.4,359.9z"/>
	<path class="st1" d="M389,261.8h-28.9c-3.2,0-5.8-2.6-5.8-5.8s2.6-5.8,5.8-5.8H389c3.2,0,5.8,2.6,5.8,5.8S392.2,261.8,389,261.8z"
		/>
	<path class="st1" d="M327.9,184.1c-2.3,0-4.4-1.4-5.3-3.6c-0.9-2.2-0.4-4.6,1.3-6.3l20.5-20.5c1.5-1.5,3.6-2.1,5.6-1.6
		c2,0.5,3.6,2.1,4.1,4.1s-0.1,4.2-1.6,5.6L332,182.4C330.9,183.5,329.5,184.1,327.9,184.1z"/>
	<path class="st2" d="M360.1,256c0,60.7-49.2,109.9-109.9,109.9S140.3,316.7,140.3,256s49.2-109.9,109.9-109.9
		S360.1,195.3,360.1,256z"/>
	<path class="st1" d="M250.2,348.5c-3.2,0-5.8-2.6-5.8-5.8s2.6-5.8,5.8-5.8c44.7,0,80.9-36.3,81-81c0-3.2,2.6-5.8,5.8-5.8
		s5.8,2.6,5.8,5.8C342.7,307.1,301.3,348.5,250.2,348.5z"/>
	<g>
		<path class="st3" d="M296.5,215.5c0,12.8-10.4,23.1-23.1,23.1c-12.8,0-23.1-10.4-23.1-23.1c0-12.8,10.4-23.1,23.1-23.1
			C286.1,192.4,296.5,202.7,296.5,215.5z"/>
		<path class="st3" d="M215.5,232.9c0,9.6-7.8,17.3-17.4,17.3c-9.6,0-17.3-7.8-17.3-17.3c0-9.6,7.8-17.4,17.3-17.4
			C207.7,215.5,215.5,223.3,215.5,232.9z"/>
		<path class="st3" d="M267.6,284.9c0,9.6-7.8,17.4-17.4,17.4c-9.6,0-17.3-7.8-17.3-17.4c0-9.6,7.8-17.3,17.3-17.3
			C259.8,267.6,267.6,275.3,267.6,284.9z"/>
		<path class="st3" d="M186.6,290.7c-0.8,0-1.5-0.2-2.2-0.5c-0.7-0.3-1.3-0.7-1.9-1.2c-0.5-0.6-0.9-1.2-1.2-1.9
			c-0.3-0.7-0.5-1.4-0.5-2.2c0-1.5,0.6-3,1.7-4.1c0.6-0.5,1.2-0.9,1.9-1.2c2.2-0.9,4.6-0.4,6.3,1.2c1.1,1.1,1.7,2.6,1.7,4.1
			c0,0.8-0.2,1.5-0.5,2.2c-0.3,0.7-0.7,1.4-1.2,1.9C189.6,290.1,188.1,290.7,186.6,290.7z"/>
		<path class="st3" d="M215.5,325.4c-0.8,0-1.5-0.2-2.2-0.5c-0.7-0.3-1.3-0.7-1.9-1.2c-0.5-0.6-0.9-1.2-1.2-1.9
			c-0.3-0.7-0.5-1.4-0.5-2.2c0-1.5,0.6-3,1.7-4.1c0.6-0.5,1.2-0.9,1.9-1.2c2.2-0.9,4.6-0.4,6.3,1.2c1.1,1.1,1.7,2.6,1.7,4.1
			c0,0.8-0.2,1.5-0.5,2.2c-0.3,0.7-0.7,1.4-1.2,1.9C218.5,324.8,217,325.4,215.5,325.4z"/>
		<path class="st3" d="M267.6,105.6c0,9.6-7.8,17.3-17.4,17.3c-9.6,0-17.3-7.8-17.3-17.3c0-9.6,7.8-17.4,17.3-17.4
			C259.8,88.3,267.6,96,267.6,105.6z"/>
		<path class="st3" d="M158.8,141.5c0,12.8-10.4,23.1-23.1,23.1s-23.1-10.4-23.1-23.1c0-12.8,10.4-23.1,23.1-23.1
			S158.8,128.7,158.8,141.5z"/>
		<path class="st3" d="M117.2,256c0,8-6.5,14.5-14.5,14.5c-8,0-14.5-6.5-14.5-14.5c0-8,6.5-14.5,14.5-14.5
			C110.7,241.5,117.2,248,117.2,256z"/>
		<path class="st3" d="M158.8,370.5c0,12.8-10.4,23.1-23.1,23.1s-23.1-10.4-23.1-23.1c0-12.8,10.4-23.1,23.1-23.1
			S158.8,357.7,158.8,370.5z"/>
		<path class="st3" d="M267.6,406.4c0,9.6-7.8,17.4-17.4,17.4c-9.6,0-17.3-7.8-17.3-17.4c0-9.6,7.8-17.3,17.3-17.3
			C259.8,389,267.6,396.8,267.6,406.4z"/>
		<path class="st3" d="M387.9,370.5c0,12.8-10.4,23.1-23.1,23.1s-23.1-10.4-23.1-23.1c0-12.8,10.4-23.1,23.1-23.1
			S387.9,357.7,387.9,370.5z"/>
		<path class="st3" d="M423.7,256c0,9.6-7.8,17.4-17.4,17.4c-9.6,0-17.3-7.8-17.3-17.4s7.8-17.4,17.3-17.4
			C416,238.6,423.7,246.4,423.7,256z"/>
		<path class="st3" d="M387.9,141.5c0,12.8-10.4,23.1-23.1,23.1s-23.1-10.4-23.1-23.1c0-12.8,10.4-23.1,23.1-23.1
			S387.9,128.7,387.9,141.5z"/>
	</g>
</g>
</svg>
