<?xml version="1.0" encoding="utf-8"?>
<!-- Generator: Adobe Illustrator 23.0.1, SVG Export Plug-In . SVG Version: 6.00 Build 0)  -->
<svg version="1.1" id="Capa_1" xmlns="http://www.w3.org/2000/svg" xmlns:xlink="http://www.w3.org/1999/xlink" x="0px" y="0px"
	 viewBox="0 0 512 512" style="enable-background:new 0 0 512 512;" xml:space="preserve">
<style type="text/css">
	.st0{fill:#78E2FF;}
	.st1{fill:#0000FF;}
</style>
<circle class="st0" cx="255" cy="256" r="256"/>
<g>
	<g>
		<path class="st1" d="M386.4,108c-126.2,0-230,97.1-241,220.5c21-29.6,46.7-58,78.7-90.8c2.4-2.5,6.3-2.5,8.8-0.1
			c2.4,2.4,2.5,6.3,0.1,8.8c-4.8,4.9-9.7,10-14.7,15.2c-2.8,2.9-5.6,5.9-8.3,8.8c-0.5,0.5-1,1.1-1.5,1.6
			c-39.6,42.4-68,79.4-88.5,125.3c-1.4,3.1,0,6.8,3.1,8.2c0.8,0.4,1.7,0.5,2.5,0.5c2.4,0,4.6-1.4,5.7-3.7
			c7.3-16.3,15.8-31.5,25.4-46.2c86.7-2.2,165.7-50.5,207-127.2c1-1.9,1-4.2-0.1-6.1c-1.1-1.9-3.2-3-5.3-3h-23l41.2-23.6
			c1.3-0.7,2.3-1.9,2.8-3.4c8.8-25.7,13.3-52.1,13.3-78.6C392.6,110.8,389.8,108,386.4,108z"/>
	</g>
</g>
</svg>
