<?xml version="1.0" encoding="utf-8"?>
<!-- Generator: Adobe Illustrator 23.0.1, SVG Export Plug-In . SVG Version: 6.00 Build 0)  -->
<svg version="1.1" id="Capa_1" xmlns="http://www.w3.org/2000/svg" xmlns:xlink="http://www.w3.org/1999/xlink" x="0px" y="0px"
	 viewBox="0 0 512 512" style="enable-background:new 0 0 512 512;" xml:space="preserve">
<style type="text/css">
	.st0{fill:#1C282D;}
	.st1{fill:url(#SVGID_1_);}
	.st2{fill:url(#SVGID_2_);}
	.st3{fill:url(#SVGID_3_);}
	.st4{fill:url(#SVGID_4_);}
	.st5{fill:url(#SVGID_5_);}
	.st6{fill:url(#SVGID_6_);}
	.st7{fill:url(#SVGID_7_);}
	.st8{fill:url(#SVGID_8_);}
	.st9{fill:url(#SVGID_9_);}
	.st10{fill:url(#SVGID_10_);}
	.st11{fill:url(#SVGID_11_);}
	.st12{fill:url(#SVGID_12_);}
	.st13{fill:url(#SVGID_13_);}
</style>
<circle class="st0" cx="256" cy="256" r="256"/>
<g>
	
		<linearGradient id="SVGID_1_" gradientUnits="userSpaceOnUse" x1="81.0997" y1="206.9422" x2="486.0036" y2="611.8461" gradientTransform="matrix(1 0 0 -1 0 514)">
		<stop  offset="0" style="stop-color:#FFB5D3"/>
		<stop  offset="0.2282" style="stop-color:#FFC9DF"/>
		<stop  offset="0.7354" style="stop-color:#FFF0F6"/>
		<stop  offset="1" style="stop-color:#FFFFFF"/>
	</linearGradient>
	<path class="st1" d="M95.3,213.1c-0.1,8-0.2,16-0.3,24c0,6.6,5.5,12,12.3,12c12.3,0,24.6,0,37-0.1c6.8,0,12.3,5.4,12.3,12.2
		c16.6,0,33.3,0,49.9,0c0-16.4,0-32.8,0.1-49.2C169.5,212.3,132.4,212.6,95.3,213.1L95.3,213.1z"/>
	
		<linearGradient id="SVGID_2_" gradientUnits="userSpaceOnUse" x1="19.1107" y1="180.3506" x2="355.1808" y2="516.4198" gradientTransform="matrix(1 0 0 -1 0 514)">
		<stop  offset="0" style="stop-color:#FFB5D3"/>
		<stop  offset="0.2282" style="stop-color:#FFC9DF"/>
		<stop  offset="0.7354" style="stop-color:#FFF0F6"/>
		<stop  offset="1" style="stop-color:#FFFFFF"/>
	</linearGradient>
	<path class="st2" d="M107.5,225c12.3-0.1,24.6-0.2,36.9-0.3c6.8,0,12.3,5.4,12.2,12.1c16.6-0.1,33.2-0.1,49.9-0.1
		c-16.6-34.9-32.9-69.6-48.3-103.9c-18.1,8.9-36.3,17.9-54.6,26.8c-4.3,2.1-7.2,6.4-7.3,11.1c-0.4,14.1-0.7,28.3-0.9,42.4
		C95.2,219.8,100.7,225.1,107.5,225z"/>
	
		<linearGradient id="SVGID_3_" gradientUnits="userSpaceOnUse" x1="53.7926" y1="316.9245" x2="239.7109" y2="316.9245" gradientTransform="matrix(1 0 0 -1 0 514)">
		<stop  offset="0" style="stop-color:#FFFFFF;stop-opacity:0"/>
		<stop  offset="0.1454" style="stop-color:#FFFBFC;stop-opacity:0.145"/>
		<stop  offset="0.279" style="stop-color:#FFF0F5;stop-opacity:0.279"/>
		<stop  offset="0.4082" style="stop-color:#FFDEE8;stop-opacity:0.408"/>
		<stop  offset="0.5345" style="stop-color:#FFC3D5;stop-opacity:0.535"/>
		<stop  offset="0.6588" style="stop-color:#FFA1BD;stop-opacity:0.659"/>
		<stop  offset="0.7816" style="stop-color:#FF78A0;stop-opacity:0.782"/>
		<stop  offset="0.9009" style="stop-color:#FF487F;stop-opacity:0.901"/>
		<stop  offset="1" style="stop-color:#FF195E"/>
	</linearGradient>
	<path class="st3" d="M158.2,132.8c-18.1,8.9-36.3,17.9-54.6,26.8c-4.3,2.1-7.2,6.4-7.3,11.1c-0.6,22.1-1,44.3-1.2,66.4
		c0,6.6,5.5,12,12.3,12c12.3,0,24.6,0,37-0.1c6.8,0,12.3,5.4,12.3,12.2c16.6,0,33.3,0,49.9,0c0-16.4,0-32.8,0.1-49.2
		C190.1,185.5,173.9,159,158.2,132.8L158.2,132.8z"/>
	
		<linearGradient id="SVGID_4_" gradientUnits="userSpaceOnUse" x1="314.1339" y1="239.8556" x2="441.1479" y2="366.8688" gradientTransform="matrix(1 0 0 -1 0 514)">
		<stop  offset="0" style="stop-color:#FFB5D3"/>
		<stop  offset="0.2282" style="stop-color:#FFC9DF"/>
		<stop  offset="0.7354" style="stop-color:#FFF0F6"/>
		<stop  offset="1" style="stop-color:#FFFFFF"/>
	</linearGradient>
	<path class="st4" d="M305.4,212.2c0.1,16.4,0.1,32.8,0.1,49.2c16.6,0,33.3,0,49.9,0c0-6.7,5.5-12.2,12.3-12.2c12.3,0,24.6,0,37,0.1
		c6.8,0,12.3-5.4,12.3-12c-0.1-8-0.1-16-0.3-24C379.6,212.6,342.5,212.3,305.4,212.2L305.4,212.2z"/>
	
		<linearGradient id="SVGID_5_" gradientUnits="userSpaceOnUse" x1="211.9234" y1="165.2215" x2="460.5226" y2="413.8207" gradientTransform="matrix(1 0 0 -1 0 514)">
		<stop  offset="0" style="stop-color:#FFB5D3"/>
		<stop  offset="0.2282" style="stop-color:#FFC9DF"/>
		<stop  offset="0.7354" style="stop-color:#FFF0F6"/>
		<stop  offset="1" style="stop-color:#FFFFFF"/>
	</linearGradient>
	<path class="st5" d="M408.4,159.7c-18.3-8.9-36.5-17.9-54.6-26.8c-15.5,34.3-31.8,69-48.4,103.9c16.6,0,33.2,0.1,49.9,0.1
		c0-6.7,5.4-12.2,12.2-12.1c12.3,0.1,24.6,0.2,36.9,0.3c6.8,0.1,12.3-5.3,12.2-11.9c-0.2-14.1-0.5-28.3-0.9-42.4
		C415.6,166.1,412.7,161.8,408.4,159.7L408.4,159.7z"/>
	
		<linearGradient id="SVGID_6_" gradientUnits="userSpaceOnUse" x1="277.7924" y1="316.9245" x2="463.7107" y2="316.9245" gradientTransform="matrix(-1 0 0 -1 736 514)">
		<stop  offset="0" style="stop-color:#FFFFFF;stop-opacity:0"/>
		<stop  offset="0.1454" style="stop-color:#FFFBFC;stop-opacity:0.145"/>
		<stop  offset="0.279" style="stop-color:#FFF0F5;stop-opacity:0.279"/>
		<stop  offset="0.4082" style="stop-color:#FFDEE8;stop-opacity:0.408"/>
		<stop  offset="0.5345" style="stop-color:#FFC3D5;stop-opacity:0.535"/>
		<stop  offset="0.6588" style="stop-color:#FFA1BD;stop-opacity:0.659"/>
		<stop  offset="0.7816" style="stop-color:#FF78A0;stop-opacity:0.782"/>
		<stop  offset="0.9009" style="stop-color:#FF487F;stop-opacity:0.901"/>
		<stop  offset="1" style="stop-color:#FF195E"/>
	</linearGradient>
	<path class="st6" d="M353.8,132.8c18.1,8.9,36.3,17.9,54.6,26.8c4.3,2.1,7.2,6.4,7.3,11.1c0.6,22.1,1,44.3,1.2,66.4
		c0,6.6-5.5,12-12.3,12c-12.3,0-24.6,0-37-0.1c-6.8,0-12.3,5.4-12.3,12.2c-16.6,0-33.3,0-49.9,0c0-16.4,0-32.8-0.1-49.2
		C321.9,185.5,338.1,159,353.8,132.8L353.8,132.8z"/>
	
		<linearGradient id="SVGID_7_" gradientUnits="userSpaceOnUse" x1="132.3424" y1="24.0381" x2="409.9583" y2="301.6541" gradientTransform="matrix(1 0 0 -1 0 514)">
		<stop  offset="0" style="stop-color:#FFB5D3"/>
		<stop  offset="0.2282" style="stop-color:#FFC9DF"/>
		<stop  offset="0.7354" style="stop-color:#FFF0F6"/>
		<stop  offset="1" style="stop-color:#FFFFFF"/>
	</linearGradient>
	<path class="st7" d="M157.2,331.9c0.3,21.7,0.8,43.5,1.5,65.2c0.2,6.7,5.8,12.4,12.4,12.5c56.6,1.5,113.2,1.5,169.9,0
		c6.6-0.2,12.2-5.8,12.4-12.5c0.6-21.7,1.1-43.5,1.5-65.2C354.7,332.8,161.6,336.8,157.2,331.9L157.2,331.9z"/>
	
		<linearGradient id="SVGID_8_" gradientUnits="userSpaceOnUse" x1="-63.4887" y1="-38.3597" x2="377.5584" y2="402.6883" gradientTransform="matrix(1 0 0 -1 0 514)">
		<stop  offset="0" style="stop-color:#FFB5D3"/>
		<stop  offset="0.2282" style="stop-color:#FFC9DF"/>
		<stop  offset="0.7354" style="stop-color:#FFF0F6"/>
		<stop  offset="1" style="stop-color:#FFFFFF"/>
	</linearGradient>
	<path class="st8" d="M354.8,331.9c1-66.4,0.7-132.8-1-199.1c-11-5.4-22-10.9-33-16.3c-43.2-0.8-86.4-0.8-129.6,0
		c-11,5.4-22,10.9-33,16.3c-1.7,66.4-2,132.8-1,199.1C212.9,387.8,299.1,387.8,354.8,331.9z"/>
	
		<linearGradient id="SVGID_9_" gradientUnits="userSpaceOnUse" x1="189.7606" y1="194.7249" x2="426.613" y2="431.5773" gradientTransform="matrix(1 0 0 -1 0 514)">
		<stop  offset="0" style="stop-color:#FF79A2"/>
		<stop  offset="1.900000e-03" style="stop-color:#FF79A2"/>
		<stop  offset="0.4463" style="stop-color:#FFA4C5"/>
		<stop  offset="0.794" style="stop-color:#FFBEDB"/>
		<stop  offset="1" style="stop-color:#FFC8E3"/>
	</linearGradient>
	<path class="st9" d="M256,221.2c-7.4-9-18.6-14.8-31.1-14.8c-22.1,0.1-40.2,18.1-40.3,40.2c0,43.8,54.3,81,68.1,89.9
		c2,1.3,4.5,1.3,6.5,0c8.9-5.6,34.1-22.9,51.3-46C292.5,267.5,274.2,244.4,256,221.2z"/>
	
		<linearGradient id="SVGID_10_" gradientUnits="userSpaceOnUse" x1="176.7263" y1="152.5847" x2="387.5604" y2="361.6849" gradientTransform="matrix(1 0 0 -1 0 514)">
		<stop  offset="0" style="stop-color:#FF79A2"/>
		<stop  offset="1.900000e-03" style="stop-color:#FF79A2"/>
		<stop  offset="0.4463" style="stop-color:#FFA4C5"/>
		<stop  offset="0.794" style="stop-color:#FFBEDB"/>
		<stop  offset="1" style="stop-color:#FFC8E3"/>
	</linearGradient>
	<path class="st10" d="M287.1,206.5c-12.5,0-23.7,5.7-31.1,14.8c0,33.7,23.3,61.9,54.6,69.3c9.7-13.1,16.8-28,16.8-43.8
		C327.3,224.6,309.2,206.6,287.1,206.5L287.1,206.5z"/>
	
		<linearGradient id="SVGID_11_" gradientUnits="userSpaceOnUse" x1="76.3541" y1="204.3465" x2="364.1222" y2="492.1138" gradientTransform="matrix(1 0 0 -1 0 514)">
		<stop  offset="0" style="stop-color:#FFB5D3"/>
		<stop  offset="0.2282" style="stop-color:#FFC9DF"/>
		<stop  offset="0.7354" style="stop-color:#FFF0F6"/>
		<stop  offset="1" style="stop-color:#FFFFFF"/>
	</linearGradient>
	<path class="st11" d="M279.3,101.3c-15.5-0.1-31-0.1-46.6,0c-7.1,0.1-14.1,1.7-20.6,4.9c-7.4,3.7-14.9,7.4-22.4,11.1
		c0.8,35.7,30.1,64,66.3,64c36.2,0,65.5-28.3,66.3-64c-7.5-3.7-15-7.4-22.4-11.1C293.4,103,286.4,101.3,279.3,101.3z"/>
	
		<linearGradient id="SVGID_12_" gradientUnits="userSpaceOnUse" x1="222.8379" y1="347.791" x2="314.251" y2="439.2041" gradientTransform="matrix(1 0 0 -1 0 514)">
		<stop  offset="0" style="stop-color:#FF195E"/>
		<stop  offset="1" style="stop-color:#FFC5A3"/>
	</linearGradient>
	<path class="st12" d="M256,156.6c-17.6,0-32.6-10.5-39-25.8c1.7-0.8,3.4-1.7,5.1-2.5c3.2-1.6,6.8-2.4,10.4-2.4
		c15.6-0.1,31.3-0.1,46.9,0c3.6,0,7.2,0.9,10.4,2.4c1.7,0.8,3.4,1.7,5.1,2.5C288.6,146.1,273.5,156.6,256,156.6L256,156.6z"/>
	
		<radialGradient id="SVGID_13_" cx="256.815" cy="442.7397" r="117.534" gradientTransform="matrix(1 0 0 -1 0 514)" gradientUnits="userSpaceOnUse">
		<stop  offset="0" style="stop-color:#FFC5A3;stop-opacity:0"/>
		<stop  offset="0.1355" style="stop-color:#FFC0A1;stop-opacity:0.136"/>
		<stop  offset="0.2898" style="stop-color:#FFB29C;stop-opacity:0.29"/>
		<stop  offset="0.4534" style="stop-color:#FF9C93;stop-opacity:0.453"/>
		<stop  offset="0.6233" style="stop-color:#FF7C86;stop-opacity:0.623"/>
		<stop  offset="0.7983" style="stop-color:#FF5375;stop-opacity:0.798"/>
		<stop  offset="0.975" style="stop-color:#FF2161;stop-opacity:0.975"/>
		<stop  offset="1" style="stop-color:#FF195E"/>
	</radialGradient>
	<path class="st13" d="M256,156.6c-17.6,0-32.6-10.5-39-25.8c1.7-0.8,3.4-1.7,5.1-2.5c3.2-1.6,6.8-2.4,10.4-2.4
		c15.6-0.1,31.3-0.1,46.9,0c3.6,0,7.2,0.9,10.4,2.4c1.7,0.8,3.4,1.7,5.1,2.5C288.6,146.1,273.5,156.6,256,156.6L256,156.6z"/>
</g>
</svg>
