<?xml version="1.0" encoding="utf-8"?>
<!-- Generator: Adobe Illustrator 23.0.1, SVG Export Plug-In . SVG Version: 6.00 Build 0)  -->
<svg version="1.1" id="Capa_1" xmlns="http://www.w3.org/2000/svg" xmlns:xlink="http://www.w3.org/1999/xlink" x="0px" y="0px"
	 viewBox="0 0 512 512" style="enable-background:new 0 0 512 512;" xml:space="preserve">
<style type="text/css">
	.st0{fill:#1C282D;}
	.st1{fill:#0037FF;}
	.st2{fill:#FFFFFF;}
</style>
<circle class="st0" cx="255" cy="256" r="256"/>
<circle class="st1" cx="255" cy="256" r="169.3"/>
<path class="st2" d="M302.4,224.1v27h42l-5.5,42.4h-36.5v125.1c-14.2,4.1-29.1,6.4-44.5,6.7c0.2,0,0.5,0,0.7,0V293.5h-36.4v-42.4
	h36.4v-31.2c0-36.2,22.1-55.9,54.3-55.9c15.5,0,28.8,1.1,32.6,1.7v37.8h-22.2C305.8,203.5,302.4,211.8,302.4,224.1z"/>
<path d="M255.5,512c1.3,0,2.5,0,3.8,0c-1.1,0-2.2,0-3.3,0H255.5z"/>
</svg>
