<?xml version="1.0" encoding="utf-8"?>
<!-- Generator: Adobe Illustrator 23.0.1, SVG Export Plug-In . SVG Version: 6.00 Build 0)  -->
<svg version="1.1" id="Layer_1" xmlns="http://www.w3.org/2000/svg" xmlns:xlink="http://www.w3.org/1999/xlink" x="0px" y="0px"
	 viewBox="0 0 512 512" style="enable-background:new 0 0 512 512;" xml:space="preserve">
<style type="text/css">
	.st0{fill:#1C282D;}
	.st1{fill:url(#SVGID_1_);}
	.st2{fill:url(#SVGID_2_);}
	.st3{fill:url(#SVGID_3_);}
</style>
<circle class="st0" cx="255" cy="256" r="256"/>
<g>
	
		<linearGradient id="SVGID_1_" gradientUnits="userSpaceOnUse" x1="136.1698" y1="138.1725" x2="375.8306" y2="377.8333" gradientTransform="matrix(1 0 0 -1 0 514)">
		<stop  offset="0" style="stop-color:#FFD600"/>
		<stop  offset="0.5" style="stop-color:#FF0100"/>
		<stop  offset="1" style="stop-color:#D800B9"/>
	</linearGradient>
	<path class="st1" d="M399.1,196.6c-0.7-15.3-3.1-25.8-6.7-35c-3.6-9.6-9.3-18.3-16.6-25.5c-7.2-7.3-15.9-13-25.5-16.6
		c-9.2-3.6-19.6-6-35-6.7c-15.4-0.7-20.3-0.9-59.4-0.9s-44,0.2-59.4,0.9c-15.3,0.7-25.8,3.1-35,6.7c-9.6,3.6-18.3,9.3-25.5,16.6
		c-7.3,7.2-13,15.9-16.6,25.5c-3.6,9.2-6,19.6-6.7,35c-0.7,15.4-0.9,20.3-0.9,59.4c0,39.1,0.2,44,0.9,59.4c0.7,15.3,3.1,25.8,6.7,35
		c3.6,9.6,9.3,18.3,16.6,25.5c7.2,7.3,15.9,13,25.5,16.6c9.2,3.6,19.6,6,35,6.7c15.4,0.7,20.3,0.9,59.4,0.9s44-0.2,59.4-0.9
		c15.3-0.7,25.8-3.1,35-6.7c19.3-7.5,34.6-22.8,42.1-42.1c3.6-9.2,6-19.6,6.7-35c0.7-15.4,0.9-20.3,0.9-59.4
		C400,216.9,399.8,212,399.1,196.6z M373.2,314.2c-0.6,14-3,21.7-5,26.7c-4.8,12.6-14.8,22.5-27.3,27.3c-5.1,2-12.7,4.3-26.7,5
		c-15.2,0.7-19.7,0.8-58.2,0.8c-38.5,0-43-0.1-58.2-0.8c-14-0.6-21.7-3-26.7-5c-6.3-2.3-11.9-6-16.6-10.8
		c-4.8-4.6-8.5-10.3-10.8-16.6c-2-5.1-4.3-12.7-5-26.7c-0.7-15.2-0.8-19.7-0.8-58.2c0-38.5,0.1-43,0.8-58.2c0.6-14,3-21.7,5-26.7
		c2.3-6.3,6-11.9,10.8-16.6c4.6-4.8,10.3-8.5,16.6-10.8c5.1-2,12.7-4.3,26.7-5c15.2-0.7,19.7-0.8,58.2-0.8h0c38.4,0,43,0.1,58.2,0.8
		c14,0.6,21.7,3,26.7,5c6.3,2.3,11.9,6,16.6,10.8c4.8,4.6,8.5,10.3,10.8,16.6c2,5.1,4.3,12.7,5,26.7c0.7,15.2,0.8,19.7,0.8,58.2
		C374.1,294.5,373.9,299,373.2,314.2z"/>
	
		<linearGradient id="SVGID_2_" gradientUnits="userSpaceOnUse" x1="203.7116" y1="205.7143" x2="308.2859" y2="310.2885" gradientTransform="matrix(1 0 0 -1 0 514)">
		<stop  offset="0" style="stop-color:#FF6400"/>
		<stop  offset="0.5" style="stop-color:#FF0100"/>
		<stop  offset="1" style="stop-color:#FD0056"/>
	</linearGradient>
	<path class="st2" d="M256,182.1c-40.8,0-73.9,33.1-73.9,73.9s33.1,73.9,73.9,73.9c40.8,0,73.9-33.1,73.9-73.9
		S296.8,182.1,256,182.1z M256,304c-26.5,0-48-21.5-48-48c0-26.5,21.5-48,48-48c26.5,0,48,21.5,48,48C304,282.5,282.5,304,256,304z"
		/>
	
		<linearGradient id="SVGID_3_" gradientUnits="userSpaceOnUse" x1="320.6465" y1="322.6492" x2="345.0846" y2="347.0874" gradientTransform="matrix(1 0 0 -1 0 514)">
		<stop  offset="0" style="stop-color:#F30072"/>
		<stop  offset="1" style="stop-color:#E50097"/>
	</linearGradient>
	<path class="st3" d="M350.1,179.1c0,9.5-7.7,17.3-17.3,17.3c-9.5,0-17.3-7.7-17.3-17.3c0-9.5,7.7-17.3,17.3-17.3
		C342.4,161.9,350.1,169.6,350.1,179.1z"/>
</g>
</svg>
