<?xml version="1.0" encoding="utf-8"?>
<!-- Generator: Adobe Illustrator 23.0.1, SVG Export Plug-In . SVG Version: 6.00 Build 0)  -->
<svg version="1.1" id="Capa_1" xmlns="http://www.w3.org/2000/svg" xmlns:xlink="http://www.w3.org/1999/xlink" x="0px" y="0px"
	 viewBox="0 0 412.7 412.7" style="enable-background:new 0 0 412.7 412.7;" xml:space="preserve">
<style type="text/css">
	.st0{fill:#C7ECFF;}
	.st1{fill:#0092FF;}
</style>
<circle class="st0" cx="206.4" cy="206.4" r="206"/>
<g>
	<g>
		<g>
			<path class="st1" d="M113.4,182.7c-13.5,0-24.5,11-24.5,24.5v78.3c0,13.5,11,24.5,24.5,24.5h29.4c5.5,0,10.6-1.9,14.7-5V182.7
				H113.4z"/>
		</g>
	</g>
	<g>
		<g>
			<path class="st1" d="M323.8,219.4c0-5.9-2.3-11.4-6.4-15.4c4.6-5,6.9-11.7,6.3-18.7c-1.1-12.4-12.4-22.2-25.5-22.2h-60.5
				c3-9.1,7.8-25.8,7.8-39.1c0-21.2-18-39.1-29.4-39.1c-10.2,0-17.4,5.7-17.7,6c-1.2,0.9-1.8,2.3-1.8,3.8v33.2l-28.2,61.1l-1.2,0.6
				v104.9c8,3.8,18,5.8,24.5,5.8h89.8c10.7,0,20-7.2,22.2-17.1c1.1-5.1,0.5-10.2-1.8-14.7c7.2-3.6,12.1-11.1,12.1-19.6
				c0-3.5-0.8-6.8-2.3-9.8C319,235.3,323.8,227.9,323.8,219.4z"/>
		</g>
	</g>
	<g>
	</g>
	<g>
	</g>
	<g>
	</g>
	<g>
	</g>
	<g>
	</g>
	<g>
	</g>
	<g>
	</g>
	<g>
	</g>
	<g>
	</g>
	<g>
	</g>
	<g>
	</g>
	<g>
	</g>
	<g>
	</g>
	<g>
	</g>
	<g>
	</g>
</g>
</svg>
