<?xml version="1.0" encoding="utf-8"?>
<!-- Generator: Adobe Illustrator 23.0.1, SVG Export Plug-In . SVG Version: 6.00 Build 0)  -->
<svg version="1.1" id="Capa_1" xmlns="http://www.w3.org/2000/svg" xmlns:xlink="http://www.w3.org/1999/xlink" x="0px" y="0px"
	 viewBox="0 0 512 512" style="enable-background:new 0 0 512 512;" xml:space="preserve">
<style type="text/css">
	.st0{fill:#1C282D;}
	.st1{fill:#1DA6DB;}
</style>
<circle class="st0" cx="256" cy="256" r="256"/>
<g>
	<g>
		<g>
			<path class="st1" d="M377.9,275.7v86.1H328v-80.4c0-20.2-7.2-34-25.3-34c-13.8,0-22,9.3-25.6,18.3c-1.3,3.2-1.7,7.7-1.7,12.2
				v83.9h-49.9c0,0,0.7-136.1,0-150.2h49.9v21.3c-0.1,0.2-0.2,0.3-0.3,0.5h0.3v-0.5c6.6-10.2,18.5-24.8,45-24.8
				C353.3,208.1,377.9,229.6,377.9,275.7L377.9,275.7z M173.3,139.2c-17.1,0-28.3,11.2-28.3,25.9c0,14.4,10.9,26,27.6,26h0.3
				c17.4,0,28.2-11.5,28.2-26C200.8,150.5,190.3,139.2,173.3,139.2L173.3,139.2z M148,361.8h49.9V211.6H148V361.8z"/>
		</g>
	</g>
	<g>
	</g>
	<g>
	</g>
	<g>
	</g>
	<g>
	</g>
	<g>
	</g>
	<g>
	</g>
	<g>
	</g>
	<g>
	</g>
	<g>
	</g>
	<g>
	</g>
	<g>
	</g>
	<g>
	</g>
	<g>
	</g>
	<g>
	</g>
	<g>
	</g>
</g>
</svg>
