<?xml version="1.0" encoding="utf-8"?>
<!-- Generator: Adobe Illustrator 23.0.1, SVG Export Plug-In . SVG Version: 6.00 Build 0)  -->
<svg version="1.1" id="Capa_1" xmlns="http://www.w3.org/2000/svg" xmlns:xlink="http://www.w3.org/1999/xlink" x="0px" y="0px"
	 viewBox="0 0 512 512" style="enable-background:new 0 0 512 512;" xml:space="preserve">
<style type="text/css">
	.st0{fill:#1C282D;}
	.st1{fill:url(#SVGID_1_);}
	.st2{fill:url(#SVGID_2_);}
</style>
<circle class="st0" cx="255" cy="256" r="256"/>
<g>
	<g>
		<g>
			
				<linearGradient id="SVGID_1_" gradientUnits="userSpaceOnUse" x1="256.0005" y1="197.3369" x2="256.0005" y2="332.7653" gradientTransform="matrix(1 0 0 -1 0 514)">
				<stop  offset="0" style="stop-color:#C3FFE8"/>
				<stop  offset="0.9973" style="stop-color:#F0FFF4"/>
			</linearGradient>
			<path class="st1" d="M277.4,256c0-12-9.4-21.4-21.4-21.4c-12,0-21.4,9.4-21.4,21.4c-12,0-21.4,9.4-21.4,21.4
				c0,12,9.4,21.4,21.4,21.4c0,12,9.4,21.4,21.4,21.4c12,0,21.4-9.4,21.4-21.4c12,0,21.4-9.4,21.4-21.4S289.3,256,277.4,256z
				 M105.8,202.6c5.9,0,10.7,4.8,10.7,10.7c0,5.9,4.8,10.7,10.7,10.7s10.7-4.8,10.7-10.7c0-17.7-14.4-32-32-32s-32,14.4-32,32v21.4
				c0,0,0,0,0,0c0,0.5,0.2,1,0.3,1.5c0.1,0.9,0.2,1.9,0.6,2.7c0,0,0,0,0,0c0.6,1.5,16,36.9,44,73.6c3.6,4.7,10.3,5.6,15,2
				c4.7-3.6,5.6-10.3,2-15c-22.9-29.9-37.1-59.5-40.5-67.1v-19.1C95.1,207.4,99.9,202.6,105.8,202.6z M406.2,181.2
				c-17.7,0-32,14.4-32,32c0,5.9,4.8,10.7,10.7,10.7s10.7-4.8,10.7-10.7c0-5.9,4.8-10.7,10.7-10.7c5.9,0,10.7,4.8,10.7,10.7v19.1
				c-3.5,7.6-17.7,37.2-40.5,67.1c-3.6,4.7-2.7,11.4,2,15c4.7,3.6,11.4,2.7,15-2c28-36.7,43.4-72.1,44-73.6c0,0,0,0,0,0
				c0.4-0.8,0.4-1.8,0.6-2.7c0.1-0.5,0.3-1,0.3-1.5c0,0,0,0,0,0v-21.4C438.3,195.6,423.9,181.2,406.2,181.2L406.2,181.2z"/>
		</g>
	</g>
	<g>
		<g>
			
				<linearGradient id="SVGID_2_" gradientUnits="userSpaceOnUse" x1="256.0001" y1="119.1502" x2="256.0001" y2="354.1268" gradientTransform="matrix(1 0 0 -1 0 514)">
				<stop  offset="0" style="stop-color:#00B59C"/>
				<stop  offset="1" style="stop-color:#9CFFAC"/>
			</linearGradient>
			<path class="st2" d="M384.9,202.6c-32.5,0-53.5-11.7-73.1-23.1c-17.3-10-33.8-19.7-55.8-19.7s-38.5,9.6-55.8,19.7
				c-19.7,11.3-40.7,23.1-73.1,23.1c-6,0-10.7,4.7-10.7,10.7V306c0,2.4,0.9,4.7,2.1,6.4c41.4,54,89.4,82.5,137.4,82.5
				s96-28.4,137.4-82.5c1.3-1.7,2.1-4.1,2.1-6.4v-92.7C395.6,207.3,390.9,202.6,384.9,202.6z M277.4,288h-10.7v10.7
				c0,6-4.7,10.7-10.7,10.7c-6,0-10.7-4.7-10.7-10.7V288h-10.7c-6,0-10.7-4.7-10.7-10.7c0-6,4.7-10.7,10.7-10.7h10.7V256
				c0-6,4.7-10.7,10.7-10.7c6,0,10.7,4.7,10.7,10.7v10.7h10.7c6,0,10.7,4.7,10.7,10.7C288,283.3,283.3,288,277.4,288z"/>
		</g>
	</g>
</g>
</svg>
