<?xml version="1.0" encoding="utf-8"?>
<!-- Generator: Adobe Illustrator 23.0.1, SVG Export Plug-In . SVG Version: 6.00 Build 0)  -->
<svg version="1.1" id="Capa_1" xmlns="http://www.w3.org/2000/svg" xmlns:xlink="http://www.w3.org/1999/xlink" x="0px" y="0px"
	 viewBox="0 0 512 512" style="enable-background:new 0 0 512 512;" xml:space="preserve">
<style type="text/css">
	.st0{fill:#1C282D;}
	.st1{fill:#FFFFFF;}
</style>
<circle class="st0" cx="255" cy="256" r="256"/>
<g>
	<path class="st1" d="M278.2,248.9c0,54.3-43.7,98.3-97.6,98.3s-97.6-44-97.6-98.3s43.7-98.3,97.6-98.3S278.2,194.7,278.2,248.9
		 M385.3,248.9c0,51.1-21.9,92.5-48.8,92.5s-48.8-41.4-48.8-92.5s21.9-92.5,48.8-92.5S385.3,197.8,385.3,248.9 M429.1,248.9
		c0,45.8-7.7,82.9-17.2,82.9s-17.2-37.1-17.2-82.9s7.7-82.9,17.2-82.9C421.4,166,429.1,203.2,429.1,248.9"/>
</g>
</svg>
