<?xml version="1.0" encoding="utf-8"?>
<!-- Generator: Adobe Illustrator 23.0.1, SVG Export Plug-In . SVG Version: 6.00 Build 0)  -->
<svg version="1.1" id="Capa_1" xmlns="http://www.w3.org/2000/svg" xmlns:xlink="http://www.w3.org/1999/xlink" x="0px" y="0px"
	 viewBox="0 0 412.7 412.7" style="enable-background:new 0 0 412.7 412.7;" xml:space="preserve">
<style type="text/css">
	.st0{fill:#FFEBCC;}
	.st1{fill:#FFAA00;}
</style>
<circle class="st0" cx="206.4" cy="206.4" r="206"/>
<g>
	<g id="Connect_2_">
		<g>
			<g>
				<path class="st1" d="M206.4,147.3c-19.6,0-35.6-16-35.6-35.6s16-35.6,35.6-35.6S242,92,242,111.7S226,147.3,206.4,147.3z"/>
			</g>
			<g>
				<path class="st1" d="M89.6,279.5c-9.8-17-4-38.8,13-48.7c17.4-10,39-3.7,48.7,13c9.8,17,4,38.8-13,48.7
					C121.1,302.4,99.4,296.5,89.6,279.5L89.6,279.5z"/>
			</g>
			<g>
				<path class="st1" d="M274.5,292.6c-17-9.8-22.9-31.6-13-48.7c9.7-16.7,31.3-23,48.7-13c17,9.8,22.9,31.6,13,48.7
					C313.4,296.5,291.6,302.4,274.5,292.6z"/>
			</g>
		</g>
		<g>
			<path class="st1" d="M113.9,206.7l-14.2-0.8c1.9-33.7,19.9-64.9,48.2-83.4l7.8,11.9C131.1,150.4,115.5,177.5,113.9,206.7z"/>
		</g>
		<g>
			<path class="st1" d="M298.8,206.7c-1.6-29.2-17.2-56.2-41.8-72.3l7.8-11.9c28.3,18.6,46.3,49.8,48.2,83.4L298.8,206.7z"/>
		</g>
		<g>
			<path class="st1" d="M206.4,318.7c-16.9,0-33.1-3.9-48.2-11.4l6.4-12.7c26,13.2,57.5,13.2,83.5,0l6.4,12.7
				C239.5,314.8,223.3,318.7,206.4,318.7z"/>
		</g>
	</g>
</g>
</svg>
