<?xml version="1.0" encoding="utf-8"?>
<!-- Generator: Adobe Illustrator 23.0.1, SVG Export Plug-In . SVG Version: 6.00 Build 0)  -->
<svg version="1.1" id="Capa_1" xmlns="http://www.w3.org/2000/svg" xmlns:xlink="http://www.w3.org/1999/xlink" x="0px" y="0px"
	 viewBox="0 0 412.7 412.7" style="enable-background:new 0 0 412.7 412.7;" xml:space="preserve">
<style type="text/css">
	.st0{fill:#A6DDFF;}
	.st1{fill:#0068FF;}
</style>
<g>
	<path class="st0" d="M412.7,206.4c0,114-92.4,206.4-206.4,206.4S0,320.3,0,206.4S92.4,0,206.4,0S412.7,92.4,412.7,206.4z"/>
	<g>
		<path class="st1" d="M288.4,249.8c-6.2,0-11.2-5-11.2-11.2v-78.6c0-9.8-8-17.8-17.8-17.8h-81c-6.2,0-11.2-5-11.2-11.2
			c0-6.2,5-11.2,11.2-11.2h81c22.1,0,40.1,18,40.1,40.1v78.6C299.5,244.9,294.5,249.8,288.4,249.8z"/>
		<path class="st1" d="M288.5,292.3c-6.8,0-13.3-2.7-18.1-7.5L248.6,263c-4.4-4.4-4.3-11.4,0-15.8c4.4-4.4,11.4-4.3,15.8,0
			l21.7,21.8c0.8,0.8,1.7,1,2.3,1c0.6,0,1.5-0.2,2.3-1l21.5-21.8c4.3-4.4,11.4-4.4,15.8-0.1c4.4,4.3,4.4,11.4,0.1,15.8l-21.5,21.8
			C301.8,289.6,295.4,292.3,288.5,292.3C288.5,292.3,288.5,292.3,288.5,292.3z"/>
		<path class="st1" d="M233.4,292.8h-80.1c-22.1,0-40.1-18-40.1-40.1v-81c0-6.2,5-11.2,11.2-11.2c6.2,0,11.2,5,11.2,11.2v81
			c0,9.8,8,17.8,17.8,17.8h80.1c6.2,0,11.2,5,11.2,11.2C244.5,287.8,239.5,292.8,233.4,292.8z"/>
		<path class="st1" d="M92.5,168.3c-2.8,0-5.7-1.1-7.8-3.2c-4.4-4.3-4.4-11.4-0.1-15.8l21.5-21.8c4.9-4.9,11.3-7.6,18.2-7.6h0
			c6.8,0,13.3,2.7,18.1,7.5l21.7,21.8c4.4,4.4,4.3,11.4,0,15.8c-4.4,4.4-11.4,4.3-15.8,0l-21.7-21.8c-0.8-0.8-1.7-1-2.3-1
			c-0.6,0-1.5,0.2-2.3,1L100.5,165C98.3,167.2,95.4,168.3,92.5,168.3z"/>
	</g>
</g>
</svg>
